<svg width="24" height="25" viewBox="0 0 24 25" fill="none" xmlns="http://www.w3.org/2000/svg">
<path fill-rule="evenodd" clip-rule="evenodd" d="M16 3.7583H8C5.23858 3.7583 3 5.99688 3 8.7583V16.7583C3 19.5197 5.23858 21.7583 8 21.7583H16C18.7614 21.7583 21 19.5197 21 16.7583V8.7583C21 5.99688 18.7614 3.7583 16 3.7583ZM19.25 16.7583C19.2445 18.5509 17.7926 20.0028 16 20.0083H8C6.20735 20.0028 4.75549 18.5509 4.75 16.7583V8.7583C4.75549 6.96565 6.20735 5.51379 8 5.5083H16C17.7926 5.51379 19.2445 6.96565 19.25 8.7583V16.7583ZM16.75 9.0083C17.3023 9.0083 17.75 8.56058 17.75 8.0083C17.75 7.45602 17.3023 7.0083 16.75 7.0083C16.1977 7.0083 15.75 7.45602 15.75 8.0083C15.75 8.56058 16.1977 9.0083 16.75 9.0083ZM12 8.2583C9.51472 8.2583 7.5 10.273 7.5 12.7583C7.5 15.2436 9.51472 17.2583 12 17.2583C14.4853 17.2583 16.5 15.2436 16.5 12.7583C16.5027 11.564 16.0294 10.4179 15.1849 9.57338C14.3404 8.72889 13.1943 8.25564 12 8.2583ZM9.25 12.7583C9.25 14.2771 10.4812 15.5083 12 15.5083C13.5188 15.5083 14.75 14.2771 14.75 12.7583C14.75 11.2395 13.5188 10.0083 12 10.0083C10.4812 10.0083 9.25 11.2395 9.25 12.7583Z" fill="#EEFCFD"/>
</svg>
