<svg width="24" height="25" viewBox="0 0 24 25" fill="none" xmlns="http://www.w3.org/2000/svg">
<path fill-rule="evenodd" clip-rule="evenodd" d="M4.5 3.7583C3.67157 3.7583 3 4.42987 3 5.2583V20.2583C3 21.0867 3.67157 21.7583 4.5 21.7583H19.5C20.3284 21.7583 21 21.0867 21 20.2583V5.2583C21 4.42987 20.3284 3.7583 19.5 3.7583H4.5ZM8.52076 7.76102C8.52639 8.71727 7.81061 9.30649 6.96123 9.30227C6.16107 9.29805 5.46357 8.66102 5.46779 7.76243C5.47201 6.91727 6.13998 6.23805 7.00764 6.25774C7.88795 6.27743 8.52639 6.9229 8.52076 7.76102ZM12.2797 10.5201H9.75971H9.7583V19.0799H12.4217V18.8802C12.4217 18.5003 12.4214 18.1203 12.4211 17.7402C12.4203 16.7264 12.4194 15.7115 12.4246 14.698C12.426 14.4519 12.4372 14.196 12.5005 13.9611C12.7381 13.0836 13.5271 12.5169 14.4074 12.6562C14.9727 12.7447 15.3467 13.0724 15.5042 13.6054C15.6013 13.9386 15.6449 14.2972 15.6491 14.6446C15.6605 15.6922 15.6589 16.7398 15.6573 17.7875C15.6567 18.1573 15.6561 18.5273 15.6561 18.8971V19.0785H18.328V18.8732C18.328 18.4212 18.3278 17.9693 18.3275 17.5174C18.327 16.3879 18.3264 15.2584 18.3294 14.1285C18.3308 13.618 18.276 13.1146 18.1508 12.621C17.9638 11.8869 17.5771 11.2794 16.9485 10.8407C16.5027 10.5285 16.0133 10.3274 15.4663 10.3049C15.404 10.3023 15.3412 10.2989 15.2781 10.2955C14.9984 10.2804 14.7141 10.265 14.4467 10.319C13.6817 10.4722 13.0096 10.8224 12.5019 11.4397C12.4429 11.5105 12.3852 11.5824 12.2991 11.6897L12.2797 11.714V10.5201ZM5.68164 19.0827H8.33242V10.5256H5.68164V19.0827Z" fill="#EEFCFD"/>
</svg>
