<svg width="52" height="51" viewBox="0 0 52 51" fill="none" xmlns="http://www.w3.org/2000/svg">
<rect width="51" height="51" transform="translate(0.492188)" fill="#A3DC2F"/>
<path d="M10.9652 34.8042C7.11896 35.9581 4.74109 37.5518 4.74109 39.3124C4.74109 42.8335 14.2547 45.6874 25.9911 45.6874C37.7275 45.6874 47.2411 42.8335 47.2411 39.3124C47.2411 37.5518 44.8621 35.9581 41.017 34.8042" stroke="#6D6D6D" stroke-width="3.1875" stroke-linecap="round" stroke-linejoin="round"/>
<path d="M25.9901 37.1873C25.9901 37.1873 39.8026 28.1603 39.8026 17.7244C39.8026 10.2826 33.6188 4.24976 25.9901 4.24976C18.3613 4.24976 12.1776 10.2826 12.1776 17.7244C12.1776 28.1603 25.9901 37.1873 25.9901 37.1873Z" stroke="#6D6D6D" stroke-width="3.1875" stroke-linejoin="round"/>
<path d="M25.9911 23.375C27.4001 23.375 28.7513 22.8153 29.7476 21.819C30.7439 20.8227 31.3036 19.4715 31.3036 18.0625C31.3036 16.6535 30.7439 15.3023 29.7476 14.306C28.7513 13.3097 27.4001 12.75 25.9911 12.75C24.5821 12.75 23.2309 13.3097 22.2346 14.306C21.2383 15.3023 20.6786 16.6535 20.6786 18.0625C20.6786 19.4715 21.2383 20.8227 22.2346 21.819C23.2309 22.8153 24.5821 23.375 25.9911 23.375Z" stroke="#6D6D6D" stroke-width="3.1875" stroke-linejoin="round"/>
</svg>
