<svg width="48" height="48" viewBox="0 0 48 48" fill="none" xmlns="http://www.w3.org/2000/svg">
<path d="M16 23.5V15C16 14.1667 16.292 13.4587 16.876 12.876C17.46 12.2933 18.168 12.0013 19 12C19.832 11.9987 20.5407 12.2907 21.126 12.876C21.7113 13.4613 22.0027 14.1693 22 15V23.5C22 24.3333 21.7087 25.042 21.126 25.626C20.5433 26.21 19.8347 26.5013 19 26.5C18.1653 26.4987 17.4573 26.2073 16.876 25.626C16.2947 25.0447 16.0027 24.336 16 23.5ZM26 23.05V7C26 6.16667 26.292 5.45867 26.876 4.876C27.46 4.29334 28.168 4.00134 29 4C29.832 3.99867 30.5407 4.29067 31.126 4.876C31.7113 5.46134 32.0027 6.16934 32 7V23.05C32 24.05 31.692 24.8 31.076 25.3C30.46 25.8 29.768 26.05 29 26.05C28.232 26.05 27.5407 25.8 26.926 25.3C26.3113 24.8 26.0027 24.05 26 23.05ZM6 29.95V23C6 22.1667 6.292 21.4587 6.876 20.876C7.46 20.2933 8.168 20.0013 9 20C9.832 19.9987 10.5407 20.2907 11.126 20.876C11.7113 21.4613 12.0027 22.1693 12 23V29.95C12 30.95 11.692 31.7 11.076 32.2C10.46 32.7 9.768 32.95 9 32.95C8.232 32.95 7.54067 32.7 6.926 32.2C6.31133 31.7 6.00267 30.95 6 29.95ZM10.8 42.1C9.93333 42.1 9.32467 41.692 8.974 40.876C8.62333 40.06 8.76533 39.3347 9.4 38.7L17.6 30.5C17.9667 30.1333 18.4087 29.9333 18.926 29.9C19.4433 29.8667 19.9013 30.0333 20.3 30.4L26 35.3L37.2 24.1H36C35.4333 24.1 34.9587 23.908 34.576 23.524C34.1933 23.14 34.0013 22.6653 34 22.1C33.9987 21.5347 34.1907 21.06 34.576 20.676C34.9613 20.292 35.436 20.1 36 20.1H42C42.5667 20.1 43.042 20.292 43.426 20.676C43.81 21.06 44.0013 21.5347 44 22.1V28.1C44 28.6667 43.808 29.142 43.424 29.526C43.04 29.91 42.5653 30.1013 42 30.1C41.4347 30.0987 40.96 29.9067 40.576 29.524C40.192 29.1413 40 28.6667 40 28.1V26.9L27.5 39.4C27.1333 39.7667 26.6913 39.9667 26.174 40C25.6567 40.0333 25.1987 39.8667 24.8 39.5L19.1 34.6L12.2 41.5C12.0333 41.6667 11.8253 41.8087 11.576 41.926C11.3267 42.0433 11.068 42.1013 10.8 42.1Z" fill="#53941C"/>
</svg>
