<svg width="32" height="32" viewBox="0 0 32 32" fill="none" xmlns="http://www.w3.org/2000/svg">
<path d="M3.55556 4.44434C2.61256 4.44434 1.70819 4.81894 1.0414 5.48573C0.374602 6.15253 0 7.0569 0 7.99989L0 23.9999C0 24.9429 0.374602 25.8473 1.0414 26.514C1.70819 27.1808 2.61256 27.5554 3.55556 27.5554H10.6667V4.44434H3.55556Z" fill="#009A49"/>
<path d="M10.6667 4.44434H21.3334V27.5554H10.6667V4.44434Z" fill="#EEEEEE"/>
<path d="M28.4444 4.44434H21.3333V27.5554H28.4444C29.3874 27.5554 30.2917 27.1808 30.9585 26.514C31.6253 25.8473 31.9999 24.9429 31.9999 23.9999V7.99989C31.9999 7.0569 31.6253 6.15253 30.9585 5.48573C30.2917 4.81894 29.3874 4.44434 28.4444 4.44434Z" fill="#009A49"/>
</svg>
