<svg width="24" height="25" viewBox="0 0 24 25" fill="none" xmlns="http://www.w3.org/2000/svg">
<path d="M21.5928 7.71863C21.4789 7.29603 21.2563 6.91064 20.9472 6.6008C20.6381 6.29096 20.2532 6.06749 19.8308 5.95263C18.2648 5.52263 11.9998 5.51563 11.9998 5.51563C11.9998 5.51563 5.73584 5.50863 4.16884 5.91963C3.74677 6.03978 3.36266 6.26641 3.05341 6.57777C2.74415 6.88912 2.52013 7.27475 2.40284 7.69763C1.98984 9.26363 1.98584 12.5116 1.98584 12.5116C1.98584 12.5116 1.98184 15.7756 2.39184 17.3256C2.62184 18.1826 3.29684 18.8596 4.15484 19.0906C5.73684 19.5206 11.9848 19.5276 11.9848 19.5276C11.9848 19.5276 18.2498 19.5346 19.8158 19.1246C20.2383 19.01 20.6236 18.787 20.9335 18.4778C21.2434 18.1686 21.4672 17.7839 21.5828 17.3616C21.9968 15.7966 21.9998 12.5496 21.9998 12.5496C21.9998 12.5496 22.0198 9.28463 21.5928 7.71863ZM9.99584 15.5206L10.0008 9.52063L15.2078 12.5256L9.99584 15.5206Z" fill="#EEFCFD"/>
</svg>
